<?xml version="1.0" encoding="UTF-8"?><svg id="wing.1" xmlns="http://www.w3.org/2000/svg" viewBox="0 0 566.929 566.929"><path d="m534.546,331.698c30.576-47.979-30.663-70.757-49.614-35.46-11.032,20.548-43.854,100.486-113.818,69.391-41.657-18.514-65.571-45.514-42.391-61.85,2.72-3.216,5.135-6.773,7.147-10.677,14.345-27.831,3.412-62.022-24.419-76.367-21.334-10.996-46.395-7.125-63.399,7.811-.021.018-.041.036-.062.054-.543.478-1.077.966-1.603,1.467-.236.223-.468.449-.7.677-.329.324-.656.649-.978.982-.438.45-.866.911-1.29,1.377-.126.14-.254.277-.379.418-2.53,2.84-4.81,5.962-6.765,9.369-13.742,23.941-8.086,53.271,11.41,70.62h0s.001,0,.001,0c1.513,1.346,3.116,2.613,4.792,3.807,34.976,22.128,15.601,38.937-1.036,50.481-35.386,24.553-42.363,81.855.871,123.716,36.8,35.632-6.943,91.029,37.401,75.857l244.831-231.674Z"/></svg>